<svg width="47" height="36" viewBox="0 0 47 36" fill="none" xmlns="http://www.w3.org/2000/svg">
<path id="Vector" d="M44.1752 17.3672C45.3515 15.6094 46.0299 13.507 46.0299 11.25C46.0299 5.03437 40.8629 0 34.4834 0C32.1669 0 30.0164 0.660938 28.2051 1.80703C27.635 2.17266 27.5917 2.94609 28.0752 3.41719L42.5227 17.4937C43.0062 17.9648 43.8072 17.9297 44.1752 17.3672ZM40.7618 20.693C41.3319 20.3273 41.3752 19.5539 40.8917 19.0828L26.4442 5.00625C25.9607 4.53516 25.1597 4.57031 24.7917 5.13281C23.6154 6.89062 22.937 8.99297 22.937 11.25C22.937 17.4656 28.104 22.5 34.4834 22.5C36.8 22.5 38.9505 21.8391 40.7618 20.693ZM21.6019 25.875H1.17918C0.493614 25.875 -0.0404085 26.4516 0.0967055 27.1055C1.20805 32.1891 5.84106 36 11.3906 36C16.9401 36 21.5731 32.1891 22.6844 27.1055C22.8288 26.4516 22.2875 25.875 21.6019 25.875ZM21.6019 23.625C22.2875 23.625 22.8215 23.0484 22.6844 22.3945C21.5731 17.3109 16.9401 13.5 11.3906 13.5C5.84106 13.5 1.20805 17.3109 0.0967055 22.3945C-0.047625 23.0484 0.493614 23.625 1.17918 23.625H21.6019Z" fill="#6B7280"/>
</svg>
