<svg width="37" height="36" viewBox="0 0 37 36" fill="none" xmlns="http://www.w3.org/2000/svg">
<path id="Vector" fill-rule="evenodd" clip-rule="evenodd" d="M34.6592 11.2771C34.6592 8.84125 34.6592 7.62159 34.0955 6.74718C33.8513 6.36814 33.5375 6.04272 33.172 5.78949C32.4343 5.27769 31.4423 5.21349 29.634 5.20655C29.6407 5.71142 29.6407 6.24058 29.6407 6.78535V9.10843H31.3135C31.6463 9.10843 31.9654 9.24552 32.2007 9.48955C32.436 9.73357 32.5681 10.0645 32.5681 10.4096C32.5681 10.7547 32.436 11.0857 32.2007 11.3297C31.9654 11.5738 31.6463 11.7108 31.3135 11.7108H29.6407V14.3133H31.3135C31.6463 14.3133 31.9654 14.4503 32.2007 14.6944C32.436 14.9384 32.5681 15.2694 32.5681 15.6145C32.5681 15.9596 32.436 16.2905 32.2007 16.5345C31.9654 16.7786 31.6463 16.9157 31.3135 16.9157H29.6407V19.5181H31.3135C31.6463 19.5181 31.9654 19.6552 32.2007 19.8992C32.436 20.1432 32.5681 20.4742 32.5681 20.8193C32.5681 21.1644 32.436 21.4953 32.2007 21.7394C31.9654 21.9834 31.6463 22.1205 31.3135 22.1205H29.6407V33.3976H27.1314V6.93976C27.1314 3.66766 27.1314 2.03335 26.1511 1.01667C25.1708 -1.0341e-07 23.595 0 20.4401 0H17.0944C13.9394 0 12.3636 -1.0341e-07 11.3833 1.01667C10.403 2.03335 10.403 3.66766 10.403 6.93976V33.3976H7.89375V22.1205H6.22091C5.88816 22.1205 5.56904 21.9834 5.33375 21.7394C5.09846 21.4953 4.96628 21.1644 4.96628 20.8193C4.96628 20.4742 5.09846 20.1432 5.33375 19.8992C5.56904 19.6552 5.88816 19.5181 6.22091 19.5181H7.89375V16.9157H6.22091C5.88816 16.9157 5.56904 16.7786 5.33375 16.5345C5.09846 16.2905 4.96628 15.9596 4.96628 15.6145C4.96628 15.2694 5.09846 14.9384 5.33375 14.6944C5.56904 14.4503 5.88816 14.3133 6.22091 14.3133H7.89375V11.7108H6.22091C5.88816 11.7108 5.56904 11.5738 5.33375 11.3297C5.09846 11.0857 4.96628 10.7547 4.96628 10.4096C4.96628 10.0645 5.09846 9.73357 5.33375 9.48955C5.56904 9.24552 5.88816 9.10843 6.22091 9.10843H7.89375V6.78361C7.89375 6.24058 7.89375 5.71142 7.90044 5.20482C6.0921 5.21349 5.10011 5.27769 4.36239 5.78949C3.99692 6.04272 3.68314 6.36814 3.43898 6.74718C2.87523 7.62159 2.87523 8.84125 2.87523 11.2771V33.3976H2.03881C1.70606 33.3976 1.38694 33.5347 1.15165 33.7787C0.916364 34.0227 0.78418 34.3537 0.78418 34.6988C0.78418 35.0439 0.916364 35.3749 1.15165 35.6189C1.38694 35.8629 1.70606 36 2.03881 36H35.4956C35.8284 36 36.1475 35.8629 36.3828 35.6189C36.6181 35.3749 36.7502 35.0439 36.7502 34.6988C36.7502 34.3537 36.6181 34.0227 36.3828 33.7787C36.1475 33.5347 35.8284 33.3976 35.4956 33.3976H34.6592V11.2771ZM18.7672 3.90361C19.1 3.90361 19.4191 4.04071 19.6544 4.28473C19.8897 4.52875 20.0218 4.85972 20.0218 5.20482V7.37349H22.1129C22.4456 7.37349 22.7648 7.51058 23.0001 7.75461C23.2353 7.99863 23.3675 8.3296 23.3675 8.6747C23.3675 9.0198 23.2353 9.35077 23.0001 9.59479C22.7648 9.83881 22.4456 9.9759 22.1129 9.9759H20.0218V12.1446C20.0218 12.4897 19.8897 12.8206 19.6544 13.0647C19.4191 13.3087 19.1 13.4458 18.7672 13.4458C18.4345 13.4458 18.1153 13.3087 17.8801 13.0647C17.6448 12.8206 17.5126 12.4897 17.5126 12.1446V9.9759H15.4215C15.0888 9.9759 14.7697 9.83881 14.5344 9.59479C14.2991 9.35077 14.1669 9.0198 14.1669 8.6747C14.1669 8.3296 14.2991 7.99863 14.5344 7.75461C14.7697 7.51058 15.0888 7.37349 15.4215 7.37349H17.5126V5.20482C17.5126 4.85972 17.6448 4.52875 17.8801 4.28473C18.1153 4.04071 18.4345 3.90361 18.7672 3.90361ZM14.1669 17.3494C14.1669 17.0043 14.2991 16.6733 14.5344 16.4293C14.7697 16.1853 15.0888 16.0482 15.4215 16.0482H22.1129C22.4456 16.0482 22.7648 16.1853 23.0001 16.4293C23.2353 16.6733 23.3675 17.0043 23.3675 17.3494C23.3675 17.6945 23.2353 18.0255 23.0001 18.2695C22.7648 18.5135 22.4456 18.6506 22.1129 18.6506H15.4215C15.0888 18.6506 14.7697 18.5135 14.5344 18.2695C14.2991 18.0255 14.1669 17.6945 14.1669 17.3494ZM14.1669 22.5542C14.1669 22.2091 14.2991 21.8782 14.5344 21.6341C14.7697 21.3901 15.0888 21.253 15.4215 21.253H22.1129C22.4456 21.253 22.7648 21.3901 23.0001 21.6341C23.2353 21.8782 23.3675 22.2091 23.3675 22.5542C23.3675 22.8993 23.2353 23.2303 23.0001 23.4743C22.7648 23.7183 22.4456 23.8554 22.1129 23.8554H15.4215C15.0888 23.8554 14.7697 23.7183 14.5344 23.4743C14.2991 23.2303 14.1669 22.8993 14.1669 22.5542ZM18.7672 28.1928C19.1 28.1928 19.4191 28.3299 19.6544 28.5739C19.8897 28.8179 20.0218 29.1489 20.0218 29.494V33.3976H17.5126V29.494C17.5126 29.1489 17.6448 28.8179 17.8801 28.5739C18.1153 28.3299 18.4345 28.1928 18.7672 28.1928Z" fill="#6B7280"/>
</svg>
