<svg width="46" height="36" viewBox="0 0 46 36" fill="none" xmlns="http://www.w3.org/2000/svg">
<path id="Vector" d="M34.1949 0.677506L37.061 4.50224H43.5236C44.4579 4.50224 45.2095 5.25453 45.2095 6.18962C45.2095 7.12471 44.4579 7.877 43.5236 7.877H36.218C35.6842 7.877 35.1854 7.62389 34.8693 7.20204L33.1764 4.94517L29.8748 11.9689C29.6149 12.5173 29.081 12.8899 28.4769 12.9321C27.8728 12.9743 27.2897 12.6931 26.9525 12.1868L24.0795 7.877H15.4251C14.4909 7.877 13.7392 7.12471 13.7392 6.18962C13.7392 5.25453 14.4909 4.50224 15.4251 4.50224H24.9786C25.5406 4.50224 26.0674 4.78347 26.3836 5.25453L28.0976 7.82778L31.3219 0.972798C31.5747 0.438461 32.0875 0.0728617 32.6776 0.00958495C33.2677 -0.0536918 33.8437 0.199415 34.1949 0.677506ZM22.7307 11.2518H23.6229L25.077 13.4383C25.8637 14.6195 27.2265 15.2874 28.6385 15.1819C30.0504 15.0765 31.3008 14.2187 31.9049 12.9321L32.6987 11.2518H38.4659C42.189 11.2518 45.2095 14.275 45.2095 18.0013V33.7502C45.2095 34.9946 44.205 36 42.9617 36C41.7183 36 40.7138 34.9946 40.7138 33.7502V31.5003H4.74771V33.7502C4.74771 34.9946 3.74319 36 2.49983 36C1.25647 36 0.251953 34.9946 0.251953 33.7502V6.75208C0.251953 5.50763 1.25647 4.50224 2.49983 4.50224C3.74319 4.50224 4.74771 5.50763 4.74771 6.75208V24.7508H20.4829V13.5016C20.4829 12.2572 21.4874 11.2518 22.7307 11.2518ZM12.6153 11.2518C14.1057 11.2518 15.5351 11.8443 16.589 12.8992C17.6429 13.954 18.235 15.3846 18.235 16.8764C18.235 18.3681 17.6429 19.7987 16.589 20.8535C15.5351 21.9084 14.1057 22.501 12.6153 22.501C11.1249 22.501 9.69546 21.9084 8.64156 20.8535C7.58767 19.7987 6.99559 18.3681 6.99559 16.8764C6.99559 15.3846 7.58767 13.954 8.64156 12.8992C9.69546 11.8443 11.1249 11.2518 12.6153 11.2518Z" fill="#116FC3"/>
</svg>
