<svg width="30" height="36" viewBox="0 0 30 36" fill="none" xmlns="http://www.w3.org/2000/svg">
<path id="Vector" d="M20.5899 25.668C26.0585 26.694 29.9336 29.322 29.9336 32.4V36H0.960938V32.4C0.960938 29.322 4.83603 26.694 10.3046 25.668L15.4473 34.2L20.5899 25.668ZM8.2041 10.8H22.6904V14.4C22.6904 16.3096 21.9273 18.1409 20.569 19.4912C19.2106 20.8414 17.3683 21.6 15.4473 21.6C13.5263 21.6 11.6839 20.8414 10.3256 19.4912C8.96722 18.1409 8.2041 16.3096 8.2041 14.4V10.8ZM8.2041 9.00002L8.94653 1.62002C8.99157 1.17448 9.20206 0.761623 9.53689 0.46207C9.87172 0.162518 10.3069 -0.00222136 10.7573 2.26265e-05H20.1553C21.0788 2.26265e-05 21.8575 0.702022 21.948 1.62002L22.6904 9.00002H8.2041ZM15.4473 1.80002H13.6365V3.60002H11.8257V5.40002H13.6365V7.20002H15.4473V5.40002H17.2581V3.60002H15.4473V1.80002Z" fill="#6B7280"/>
</svg>
