<svg width="30" height="36" viewBox="0 0 30 36" fill="none" xmlns="http://www.w3.org/2000/svg">
<g id="Group 66">
<path id="Vector" opacity="0.25" d="M14.2174 20.6239C13.7841 20.6238 13.3685 20.4514 13.0621 20.1447L7.28409 14.3563C6.97776 14.0496 6.80566 13.6336 6.80566 13.1999C6.80566 12.7662 6.97776 12.3503 7.28409 12.0435L17.6816 1.63622C17.8604 1.45647 18.0786 1.32094 18.3189 1.2404L21.7847 0.0840329C22.0728 -0.0121537 22.382 -0.0260696 22.6776 0.0438468C22.9732 0.113763 23.2434 0.264745 23.458 0.479848L26.9255 3.94896C27.1401 4.16394 27.2906 4.43453 27.3602 4.73037C27.4298 5.0262 27.4156 5.33559 27.3193 5.62381L26.1624 9.09456C26.0827 9.33508 25.9479 9.55355 25.7686 9.73244L15.3727 20.1447C15.0663 20.4514 14.6508 20.6238 14.2174 20.6239Z" fill="#116FC3"/>
<path id="Vector_2" opacity="0.5" d="M7.28331 14.3564L4.96948 16.6708C4.81755 16.8227 4.69703 17.0031 4.61479 17.2017C4.53256 17.4002 4.49023 17.6131 4.49023 17.828C4.49023 18.043 4.53256 18.2558 4.61479 18.4543C4.69703 18.6529 4.81755 18.8333 4.96948 18.9852L8.43696 22.4527C8.74339 22.7593 9.15894 22.9316 9.59224 22.9316C10.0255 22.9316 10.4411 22.7593 10.7475 22.4527L13.0581 20.1416L7.28331 14.3564Z" fill="#116FC3"/>
<path id="Vector_3" d="M8.59413 27.822H2.05789C1.62451 27.822 1.20888 27.6497 0.902433 27.3429C0.595987 27.0362 0.423828 26.6202 0.423828 26.1864C0.423828 25.7526 0.595987 25.3366 0.902433 25.0298C1.20888 24.7231 1.62451 24.5508 2.05789 24.5508H8.59413C9.02751 24.5508 9.44314 24.7231 9.74958 25.0298C10.056 25.3366 10.2282 25.7526 10.2282 26.1864C10.2282 26.6202 10.056 27.0362 9.74958 27.3429C9.44314 27.6497 9.02751 27.822 8.59413 27.822Z" fill="#116FC3"/>
<path id="Vector_4" opacity="0.5" d="M28.2028 35.9997H2.05789C1.62451 35.9997 1.20888 35.8274 0.902433 35.5207C0.595987 35.2139 0.423828 34.7979 0.423828 34.3641C0.423828 33.9303 0.595987 33.5143 0.902433 33.2076C1.20888 32.9008 1.62451 32.7285 2.05789 32.7285H28.2028C28.6362 32.7285 29.0519 32.9008 29.3583 33.2076C29.6647 33.5143 29.8369 33.9303 29.8369 34.3641C29.8369 34.7979 29.6647 35.2139 29.3583 35.5207C29.0519 35.8274 28.6362 35.9997 28.2028 35.9997Z" fill="#116FC3"/>
<path id="Vector_5" opacity="0.25" d="M19.7312 32.7289C19.9248 32.2051 20.0265 31.6518 20.0319 31.0933C20.0319 29.792 19.5154 28.5439 18.5961 27.6237C17.6767 26.7035 16.4299 26.1865 15.1297 26.1865C13.8296 26.1865 12.5827 26.7035 11.6634 27.6237C10.744 28.5439 10.2275 29.792 10.2275 31.0933C10.2329 31.6518 10.3346 32.2051 10.5282 32.7289H19.7312Z" fill="#116FC3"/>
<path id="Vector_6" opacity="0.5" d="M24.7272 10.7754L22.415 13.0898C24.0398 14.8848 24.9382 17.2214 24.9347 19.6436C24.9245 21.5061 24.3893 23.3279 23.3905 24.8993C22.3918 26.4708 20.9701 27.7281 19.289 28.5266C19.7718 29.2961 20.0294 30.1858 20.0325 31.0945C20.0279 31.3177 20.0061 31.5403 19.9671 31.7602C22.3856 30.7857 24.4599 29.1134 25.9264 26.9559C27.3929 24.7984 28.1853 22.2531 28.2028 19.6436C28.2075 16.3537 26.9655 13.1845 24.7272 10.7754ZM10.9144 28.6296C10.2925 28.3772 9.69373 28.0707 9.12515 27.7137C8.955 27.7797 8.77486 27.8162 8.59245 27.8216H4.22461C5.87326 29.6661 7.96579 31.058 10.3033 31.8648C10.2556 31.6102 10.2304 31.3519 10.2281 31.0928C10.2327 30.2251 10.4697 29.3745 10.9144 28.6296Z" fill="#116FC3"/>
</g>
</svg>
