<svg width="36" height="36" viewBox="0 0 36 36" fill="none" xmlns="http://www.w3.org/2000/svg">
<g id="Group 65">
<path id="Vector" opacity="0.5" d="M30.5713 21.6001C29.5043 21.6001 28.4612 21.2834 27.574 20.69C26.6868 20.0967 25.9953 19.2533 25.587 18.2666C25.1787 17.2798 25.0718 16.1941 25.28 15.1466C25.4882 14.0991 26.002 13.1369 26.7565 12.3817C27.511 11.6265 28.4723 11.1122 29.5188 10.9038C30.5653 10.6954 31.65 10.8024 32.6358 11.2111C33.6216 11.6198 34.4642 12.3119 35.057 13.2C35.6498 14.088 35.9662 15.132 35.9662 16.2001C35.9648 17.6318 35.3959 19.0045 34.3845 20.0169C33.3731 21.0293 32.0017 21.5987 30.5713 21.6001ZM10.7899 23.4001C7.92924 23.3968 5.18673 22.2578 3.16396 20.2332C1.14119 18.2085 0.00333157 15.4634 0 12.6001V1.80001C0 1.32262 0.189464 0.864777 0.526713 0.52721C0.863962 0.189643 1.32137 0 1.79831 0H5.39493C5.87187 0 6.32928 0.189643 6.66653 0.52721C7.00378 0.864777 7.19324 1.32262 7.19324 1.80001C7.19324 2.2774 7.00378 2.73524 6.66653 3.0728C6.32928 3.41037 5.87187 3.60001 5.39493 3.60001H3.59662V12.6001C3.59662 14.5096 4.35448 16.341 5.70347 17.6912C7.05247 19.0415 8.8821 19.8001 10.7899 19.8001C12.6976 19.8001 14.5273 19.0415 15.8763 17.6912C17.2253 16.341 17.9831 14.5096 17.9831 12.6001V3.60001H16.1848C15.7079 3.60001 15.2504 3.41037 14.9132 3.0728C14.576 2.73524 14.3865 2.2774 14.3865 1.80001C14.3865 1.32262 14.576 0.864777 14.9132 0.52721C15.2504 0.189643 15.7079 0 16.1848 0H19.7814C20.2584 0 20.7158 0.189643 21.053 0.52721C21.3903 0.864777 21.5797 1.32262 21.5797 1.80001V12.6001C21.5764 15.4634 20.4385 18.2085 18.4158 20.2332C16.393 22.2578 13.6505 23.3968 10.7899 23.4001Z" fill="#116FC3"/>
<path id="Vector_2" d="M30.5709 21.5998C29.9569 21.5938 29.3485 21.4818 28.7726 21.2686V24.2998C28.7726 26.448 27.92 28.5083 26.4024 30.0274C24.8848 31.5464 22.8265 32.3998 20.6802 32.3998C18.534 32.3998 16.4757 31.5464 14.958 30.0274C13.4404 28.5083 12.5878 26.448 12.5878 24.2998V23.2378C11.3987 23.4546 10.1803 23.4546 8.99121 23.2378V24.2998C8.99121 27.4028 10.2227 30.3788 12.4148 32.5729C14.607 34.7671 17.5801 35.9998 20.6802 35.9998C23.7804 35.9998 26.7535 34.7671 28.9456 32.5729C31.1377 30.3788 32.3693 27.4028 32.3693 24.2998V21.2686C31.7933 21.4818 31.185 21.5938 30.5709 21.5998Z" fill="#6B7280"/>
</g>
</svg>
